<svg width="15" height="15" viewBox="0 0 15 15" fill="none" xmlns="http://www.w3.org/2000/svg">
<path d="M7.48438 13.5C9.125 13.5 10.5312 12.9141 11.7031 11.7422C12.8984 10.5469 13.4961 9.12891 13.4961 7.48828C13.4961 6.92578 13.3672 6.28125 13.1094 5.55469C12.875 4.82812 12.582 4.24219 12.2305 3.79688L3.79297 12.2344C4.84766 13.0781 6.07812 13.5 7.48438 13.5ZM1.47266 7.48828C1.47266 8.05078 1.58984 8.69531 1.82422 9.42188C2.08203 10.1484 2.38672 10.7344 2.73828 11.1797L11.1758 2.74219C10.1211 1.89844 8.89062 1.47656 7.48438 1.47656C5.84375 1.47656 4.42578 2.07422 3.23047 3.26953C2.05859 4.44141 1.47266 5.84766 1.47266 7.48828ZM2.17578 2.21484C3.65234 0.738281 5.42188 0 7.48438 0C9.54688 0 11.3047 0.738281 12.7578 2.21484C14.2344 3.66797 14.9727 5.42578 14.9727 7.48828C14.9727 9.55078 14.2344 11.3203 12.7578 12.7969C11.3047 14.25 9.54688 14.9766 7.48438 14.9766C5.42188 14.9766 3.65234 14.25 2.17578 12.7969C0.722656 11.3203 -0.00390625 9.55078 -0.00390625 7.48828C-0.00390625 5.42578 0.722656 3.66797 2.17578 2.21484Z" fill="#EF4444"/>
</svg>
