<svg width="53" height="53" viewBox="0 0 53 53" fill="none" xmlns="http://www.w3.org/2000/svg">
<path d="M16.2891 8.90625L10.0781 12.4219L13.5938 6.21094L10.0781 0L16.2891 3.51562L22.5 0L18.9844 6.21094L22.5 12.4219L16.2891 8.90625ZM46.2891 33.5156L52.5 30L48.9844 36.2109L52.5 42.4219L46.2891 38.9062L40.0781 42.4219L43.5938 36.2109L40.0781 30L46.2891 33.5156ZM52.5 0L48.9844 6.21094L52.5 12.4219L46.2891 8.90625L40.0781 12.4219L43.5938 6.21094L40.0781 0L46.2891 3.51562L52.5 0ZM33.5156 13.2422L39.2578 19.1016C39.8047 19.5703 40.0781 20.1562 40.0781 20.8594C40.0781 21.4844 39.8047 22.0703 39.2578 22.6172L10.1953 51.6797C9.64844 52.2266 9.02344 52.5 8.32031 52.5C7.69531 52.5 7.10938 52.2266 6.5625 51.6797L0.820312 45.9375C0.273438 45.3906 0 44.8047 0 44.1797C0 43.4766 0.273438 42.8516 0.820312 42.3047L29.8828 13.2422C30.4297 12.6953 31.0156 12.4219 31.6406 12.4219C32.3438 12.4219 32.9688 12.6953 33.5156 13.2422ZM30.9375 26.9531L37.0312 20.8594L31.6406 15.4688L25.5469 21.5625L30.9375 26.9531Z" fill="white" fill-opacity="0.1"/>
</svg>
