<svg width="54" height="54" viewBox="0 0 54 54" fill="none" xmlns="http://www.w3.org/2000/svg">
<path d="M47.9531 15.0469V11.9531H42.0469V23.4844C45.9844 22.0781 47.9531 19.2656 47.9531 15.0469ZM11.9531 23.4844V11.9531H6.04688V15.0469C6.04688 19.2656 8.01562 22.0781 11.9531 23.4844ZM47.9531 6.04688C49.5469 6.04688 50.9531 6.65625 52.1719 7.875C53.3906 9 54 10.3594 54 11.9531V15.0469C54 18.7969 52.7344 22.0781 50.2031 24.8906C47.6719 27.7031 44.5312 29.3438 40.7812 29.8125C39.9375 31.875 38.4375 33.75 36.2812 35.4375C34.2188 37.125 32.1094 38.2031 29.9531 38.6719V47.9531H42.0469V54H11.9531V47.9531H24.0469V38.6719C21.8906 38.2031 19.7344 37.125 17.5781 35.4375C15.5156 33.75 14.0625 31.875 13.2188 29.8125C9.46875 29.3438 6.32812 27.7031 3.79688 24.8906C1.26562 22.0781 0 18.7969 0 15.0469V11.9531C0 10.3594 0.609375 9 1.82812 7.875C3.04688 6.65625 4.45312 6.04688 6.04688 6.04688H11.9531V0H42.0469V6.04688H47.9531Z" fill="#FFC107" fill-opacity="0.2"/>
</svg>
