<svg width="46" height="42" viewBox="0 0 46 42" fill="none" xmlns="http://www.w3.org/2000/svg">
<path d="M14.7188 31.0449C17.0104 33.265 19.7318 34.375 22.8828 34.375C26.0339 34.375 28.7194 33.265 30.9395 31.0449C33.2311 28.7533 34.377 26.0319 34.377 22.8809C34.377 19.7298 33.2311 17.0443 30.9395 14.8242C28.7194 12.5326 26.0339 11.3867 22.8828 11.3867C19.7318 11.3867 17.0104 12.5326 14.7188 14.8242C12.4987 17.0443 11.3887 19.7298 11.3887 22.8809C11.3887 26.0319 12.4987 28.7533 14.7188 31.0449ZM16.0078 0H29.7578L33.9473 4.51172H41.252C42.4694 4.51172 43.5078 4.97721 44.3672 5.9082C45.2982 6.83919 45.7637 7.91341 45.7637 9.13086V36.6309C45.7637 37.8483 45.2982 38.9225 44.3672 39.8535C43.5078 40.7845 42.4694 41.25 41.252 41.25H4.51367C3.29622 41.25 2.22201 40.7845 1.29102 39.8535C0.431641 38.9225 0.00195312 37.8483 0.00195312 36.6309V9.13086C0.00195312 7.91341 0.431641 6.83919 1.29102 5.9082C2.22201 4.97721 3.29622 4.51172 4.51367 4.51172H11.8184L16.0078 0ZM17.7266 28.0371C16.2943 26.6048 15.5781 24.8861 15.5781 22.8809C15.5781 20.8757 16.2943 19.1569 17.7266 17.7246C19.1589 16.2923 20.8776 15.5762 22.8828 15.5762C24.888 15.5762 26.6068 16.2923 28.0391 17.7246C29.4714 19.1569 30.1875 20.8757 30.1875 22.8809C30.1875 24.8861 29.4714 26.6048 28.0391 28.0371C26.6068 29.4694 24.888 30.1855 22.8828 30.1855C20.8776 30.1855 19.1589 29.4694 17.7266 28.0371Z" fill="white" fill-opacity="0.1"/>
</svg>
