<svg width="50" height="46" viewBox="0 0 50 46" fill="none" xmlns="http://www.w3.org/2000/svg">
<path d="M24.9609 45.8203L21.3281 42.5391C17.1875 38.7891 14.1797 36.0156 12.3047 34.2188C10.4297 32.4219 8.32031 30.1953 5.97656 27.5391C3.71094 24.8828 2.14844 22.5 1.28906 20.3906C0.429688 18.2031 0 15.9766 0 13.7109C0 9.88281 1.28906 6.64063 3.86719 3.98438C6.52344 1.32812 9.80469 0 13.7109 0C18.2422 0 21.9922 1.75781 24.9609 5.27344C27.9297 1.75781 31.6797 0 36.2109 0C40.1172 0 43.3594 1.32812 45.9375 3.98438C48.5938 6.64063 49.9219 9.88281 49.9219 13.7109C49.9219 16.7578 48.9062 19.9219 46.875 23.2031C44.8438 26.4844 42.6172 29.3359 40.1953 31.7578C37.8516 34.1797 33.9844 37.8125 28.5938 42.6562L24.9609 45.8203Z" fill="#FF3827" fill-opacity="0.22"/>
</svg>
