<svg width="45" height="53" viewBox="0 0 45 53" fill="none" xmlns="http://www.w3.org/2000/svg">
<path d="M25.7812 15.4688L18.9844 27.1875L13.2422 18.2812C16.0547 16.0938 19.1406 15 22.5 15C23.2813 15 24.375 15.1562 25.7812 15.4688ZM33.3984 40.3125L26.3672 27.5391H37.2656C37.4219 28.6328 37.5 29.4531 37.5 30V30.1172C37.5 31.7578 37.1094 33.5938 36.3281 35.625C35.5469 37.5781 34.5703 39.1406 33.3984 40.3125ZM11.3672 20.0391L19.5703 32.5781H7.73438C7.57812 31.4844 7.5 30.625 7.5 30C7.5 28.4375 7.85156 26.6797 8.55469 24.7266C9.33594 22.7734 10.2734 21.2109 11.3672 20.0391ZM18.9844 44.6484L26.1328 32.3438L31.4062 42.0703C28.8281 44.0234 25.8594 45 22.5 45C21.3281 45 20.1562 44.8828 18.9844 44.6484ZM36.6797 25.0781H23.2031L28.2422 16.1719C29.9609 16.875 31.6406 18.125 33.2812 19.9219C35 21.6406 36.1328 23.3594 36.6797 25.0781ZM21.6797 35.0391L16.6406 43.8281C14.9219 43.125 13.2422 41.9141 11.6016 40.1953C10.0391 38.4766 8.94531 36.7578 8.32031 35.0391H21.6797ZM10.0781 42.4219C13.5156 45.8594 17.6562 47.5781 22.5 47.5781C27.3438 47.5781 31.4453 45.8594 34.8047 42.4219C38.2422 38.9844 39.9609 34.8438 39.9609 30C39.9609 25.1562 38.2422 21.0547 34.8047 17.6953C31.4453 14.2578 27.3438 12.5391 22.5 12.5391C17.6562 12.5391 13.5156 14.2578 10.0781 17.6953C6.71875 21.0547 5.03906 25.1562 5.03906 30C5.03906 34.8438 6.71875 38.9844 10.0781 42.4219ZM40.0781 16.0547C41.4062 17.7734 42.5391 20 43.4766 22.7344C44.4922 25.3906 45 27.8125 45 30C45 36.1719 42.8125 41.4844 38.4375 45.9375C34.0625 50.3125 28.75 52.5 22.5 52.5C16.25 52.5 10.9375 50.3125 6.5625 45.9375C2.1875 41.4844 0 36.1719 0 30C0 23.8281 2.1875 18.5547 6.5625 14.1797C10.9375 9.72656 16.25 7.5 22.5 7.5C24.6094 7.5 27.0312 8.00781 29.7656 9.02344C32.5781 10.0391 34.8438 11.2109 36.5625 12.5391L40.0781 8.90625C41.3281 9.92188 42.5 11.0938 43.5938 12.4219L40.0781 16.0547ZM30 0V5.03906H15V0H30Z" fill="#00AEEF" fill-opacity="0.1"/>
</svg>
