<svg width="66" height="64" viewBox="0 0 66 64" fill="none" xmlns="http://www.w3.org/2000/svg">
<g filter="url(#filter0_d_7339_17918)">
<mask id="path-1-outside-1_7339_17918" maskUnits="userSpaceOnUse" x="3.85938" y="-0.486328" width="58" height="56" fill="black">
<rect fill="white" x="3.85938" y="-0.486328" width="58" height="56"/>
<path d="M60.3984 27.5137L54.3047 34.5449L55.125 43.6855L46.1016 45.7949L41.4141 53.7637L32.8594 50.1309L24.3047 53.7637L19.6172 45.7949L10.5938 43.6855L11.4141 34.5449L5.32031 27.5137L11.4141 20.4824L10.5938 11.2246L19.6172 9.23242L24.3047 1.26367L32.8594 4.89648L41.4141 1.26367L46.1016 9.23242L55.125 11.3418L54.3047 20.4824L60.3984 27.5137ZM28.0547 39.3496L46.4531 20.9512L42.7031 17.2012L28.0547 31.9668L22.3125 26.1074L18.5625 29.7402L28.0547 39.3496Z"/>
</mask>
<path d="M60.3984 27.5137L54.3047 34.5449L55.125 43.6855L46.1016 45.7949L41.4141 53.7637L32.8594 50.1309L24.3047 53.7637L19.6172 45.7949L10.5938 43.6855L11.4141 34.5449L5.32031 27.5137L11.4141 20.4824L10.5938 11.2246L19.6172 9.23242L24.3047 1.26367L32.8594 4.89648L41.4141 1.26367L46.1016 9.23242L55.125 11.3418L54.3047 20.4824L60.3984 27.5137ZM28.0547 39.3496L46.4531 20.9512L42.7031 17.2012L28.0547 31.9668L22.3125 26.1074L18.5625 29.7402L28.0547 39.3496Z" fill="white" fill-opacity="0.05" shape-rendering="crispEdges"/>
<path d="M60.3984 27.5137L61.1541 28.1686L61.7217 27.5137L61.1541 26.8587L60.3984 27.5137ZM54.3047 34.5449L53.549 33.89L53.2707 34.2111L53.3087 34.6343L54.3047 34.5449ZM55.125 43.6855L55.3526 44.6593L56.1987 44.4615L56.121 43.5962L55.125 43.6855ZM46.1016 45.7949L45.8739 44.8212L45.4568 44.9187L45.2396 45.2879L46.1016 45.7949ZM41.4141 53.7637L41.0232 54.6841L41.831 55.0272L42.276 54.2707L41.4141 53.7637ZM32.8594 50.1309L33.2502 49.2104L32.8594 49.0444L32.4685 49.2104L32.8594 50.1309ZM24.3047 53.7637L23.4428 54.2707L23.8877 55.0272L24.6956 54.6841L24.3047 53.7637ZM19.6172 45.7949L20.4791 45.2879L20.2619 44.9187L19.8448 44.8212L19.6172 45.7949ZM10.5938 43.6855L9.59775 43.5962L9.52009 44.4615L10.3661 44.6593L10.5938 43.6855ZM11.4141 34.5449L12.4101 34.6343L12.448 34.2111L12.1698 33.89L11.4141 34.5449ZM5.32031 27.5137L4.56462 26.8587L3.99702 27.5137L4.56462 28.1686L5.32031 27.5137ZM11.4141 20.4824L12.1698 21.1374L12.4476 20.8168L12.4102 20.3942L11.4141 20.4824ZM10.5938 11.2246L10.3782 10.2481L9.52009 10.4376L9.59765 11.3129L10.5938 11.2246ZM19.6172 9.23242L19.8328 10.2089L20.2582 10.115L20.4791 9.73944L19.6172 9.23242ZM24.3047 1.26367L24.6956 0.343227L23.8877 0.000179291L23.4428 0.756653L24.3047 1.26367ZM32.8594 4.89648L32.4685 5.81693L32.8594 5.98292L33.2502 5.81693L32.8594 4.89648ZM41.4141 1.26367L42.276 0.756653L41.831 0.000179291L41.0232 0.343227L41.4141 1.26367ZM46.1016 9.23242L45.2396 9.73944L45.4568 10.1087L45.8739 10.2062L46.1016 9.23242ZM55.125 11.3418L56.121 11.4312L56.1987 10.5658L55.3526 10.368L55.125 11.3418ZM54.3047 20.4824L53.3087 20.393L53.2707 20.8162L53.549 21.1374L54.3047 20.4824ZM28.0547 39.3496L27.3433 40.0524L28.0503 40.7682L28.7618 40.0567L28.0547 39.3496ZM46.4531 20.9512L47.1602 21.6583L47.8673 20.9512L47.1602 20.2441L46.4531 20.9512ZM42.7031 17.2012L43.4102 16.4941L42.7003 15.7841L41.9932 16.4969L42.7031 17.2012ZM28.0547 31.9668L27.3405 32.6667L28.0503 33.3911L28.7646 32.6711L28.0547 31.9668ZM22.3125 26.1074L23.0267 25.4075L22.3308 24.6974L21.6167 25.3892L22.3125 26.1074ZM18.5625 29.7402L17.8667 29.022L17.1414 29.7246L17.8511 30.443L18.5625 29.7402ZM60.3984 27.5137L59.6427 26.8587L53.549 33.89L54.3047 34.5449L55.0604 35.1999L61.1541 28.1686L60.3984 27.5137ZM54.3047 34.5449L53.3087 34.6343L54.129 43.7749L55.125 43.6855L56.121 43.5962L55.3007 34.4555L54.3047 34.5449ZM55.125 43.6855L54.8974 42.7118L45.8739 44.8212L46.1016 45.7949L46.3292 46.7687L55.3526 44.6593L55.125 43.6855ZM46.1016 45.7949L45.2396 45.2879L40.5521 53.2567L41.4141 53.7637L42.276 54.2707L46.9635 46.3019L46.1016 45.7949ZM41.4141 53.7637L41.8049 52.8432L33.2502 49.2104L32.8594 50.1309L32.4685 51.0513L41.0232 54.6841L41.4141 53.7637ZM32.8594 50.1309L32.4685 49.2104L23.9138 52.8432L24.3047 53.7637L24.6956 54.6841L33.2502 51.0513L32.8594 50.1309ZM24.3047 53.7637L25.1666 53.2567L20.4791 45.2879L19.6172 45.7949L18.7553 46.3019L23.4428 54.2707L24.3047 53.7637ZM19.6172 45.7949L19.8448 44.8212L10.8214 42.7118L10.5938 43.6855L10.3661 44.6593L19.3896 46.7687L19.6172 45.7949ZM10.5938 43.6855L11.5897 43.7749L12.4101 34.6343L11.4141 34.5449L10.4181 34.4555L9.59775 43.5962L10.5938 43.6855ZM11.4141 34.5449L12.1698 33.89L6.076 26.8587L5.32031 27.5137L4.56462 28.1686L10.6584 35.1999L11.4141 34.5449ZM5.32031 27.5137L6.076 28.1686L12.1698 21.1374L11.4141 20.4824L10.6584 19.8275L4.56462 26.8587L5.32031 27.5137ZM11.4141 20.4824L12.4102 20.3942L11.5898 11.1363L10.5938 11.2246L9.59765 11.3129L10.418 20.5707L11.4141 20.4824ZM10.5938 11.2246L10.8093 12.2011L19.8328 10.2089L19.6172 9.23242L19.4016 8.25594L10.3782 10.2481L10.5938 11.2246ZM19.6172 9.23242L20.4791 9.73944L25.1666 1.77069L24.3047 1.26367L23.4428 0.756653L18.7553 8.7254L19.6172 9.23242ZM24.3047 1.26367L23.9138 2.18412L32.4685 5.81693L32.8594 4.89648L33.2502 3.97604L24.6956 0.343227L24.3047 1.26367ZM32.8594 4.89648L33.2502 5.81693L41.8049 2.18412L41.4141 1.26367L41.0232 0.343227L32.4685 3.97604L32.8594 4.89648ZM41.4141 1.26367L40.5521 1.77069L45.2396 9.73944L46.1016 9.23242L46.9635 8.7254L42.276 0.756653L41.4141 1.26367ZM46.1016 9.23242L45.8739 10.2062L54.8974 12.3155L55.125 11.3418L55.3526 10.368L46.3292 8.25867L46.1016 9.23242ZM55.125 11.3418L54.129 11.2524L53.3087 20.393L54.3047 20.4824L55.3007 20.5718L56.121 11.4312L55.125 11.3418ZM54.3047 20.4824L53.549 21.1374L59.6427 28.1686L60.3984 27.5137L61.1541 26.8587L55.0604 19.8275L54.3047 20.4824ZM28.0547 39.3496L28.7618 40.0567L47.1602 21.6583L46.4531 20.9512L45.746 20.2441L27.3476 38.6425L28.0547 39.3496ZM46.4531 20.9512L47.1602 20.2441L43.4102 16.4941L42.7031 17.2012L41.996 17.9083L45.746 21.6583L46.4531 20.9512ZM42.7031 17.2012L41.9932 16.4969L27.3448 31.2625L28.0547 31.9668L28.7646 32.6711L43.413 17.9055L42.7031 17.2012ZM28.0547 31.9668L28.7689 31.2669L23.0267 25.4075L22.3125 26.1074L21.5983 26.8074L27.3405 32.6667L28.0547 31.9668ZM22.3125 26.1074L21.6167 25.3892L17.8667 29.022L18.5625 29.7402L19.2583 30.4585L23.0083 26.8257L22.3125 26.1074ZM18.5625 29.7402L17.8511 30.443L27.3433 40.0524L28.0547 39.3496L28.7661 38.6469L19.2739 29.0375L18.5625 29.7402Z" fill="black" mask="url(#path-1-outside-1_7339_17918)"/>
</g>
<defs>
<filter id="filter0_d_7339_17918" x="0" y="0" width="65.7188" height="63.0273" filterUnits="userSpaceOnUse" color-interpolation-filters="sRGB">
<feFlood flood-opacity="0" result="BackgroundImageFix"/>
<feColorMatrix in="SourceAlpha" type="matrix" values="0 0 0 0 0 0 0 0 0 0 0 0 0 0 0 0 0 0 127 0" result="hardAlpha"/>
<feOffset dy="4"/>
<feGaussianBlur stdDeviation="2"/>
<feComposite in2="hardAlpha" operator="out"/>
<feColorMatrix type="matrix" values="0 0 0 0 0 0 0 0 0 0 0 0 0 0 0 0 0 0 0.25 0"/>
<feBlend mode="normal" in2="BackgroundImageFix" result="effect1_dropShadow_7339_17918"/>
<feBlend mode="normal" in="SourceGraphic" in2="effect1_dropShadow_7339_17918" result="shape"/>
</filter>
</defs>
</svg>
