<svg width="171" height="58" viewBox="0 0 171 58" fill="none" xmlns="http://www.w3.org/2000/svg">
<rect x="0.602864" y="0.602864" width="169.794" height="56.7943" rx="28.3971" stroke="#64748B" stroke-width="1.20573"/>
<path d="M35.8233 28.3509L24.1094 41.0644C24.1105 41.0667 24.1105 41.0701 24.1116 41.0723C24.4713 42.4528 25.7036 43.4688 27.1669 43.4688C27.7522 43.4688 28.3012 43.3067 28.7721 43.0232L28.8095 43.0007L41.9944 35.2207L35.8233 28.3509Z" fill="#EA4335"/>
<path d="M47.6791 26.1864L47.6681 26.1785L41.9756 22.8044L35.5625 28.6402L41.9987 35.2197L47.6604 31.8793C48.6528 31.3303 49.3272 30.2603 49.3272 29.0272C49.3272 27.8009 48.6627 26.7366 47.6791 26.1864Z" fill="#FBBC04"/>
<path d="M24.1156 16.9347C24.0452 17.2002 24.0078 17.4792 24.0078 17.7672V40.233C24.0078 40.521 24.0452 40.8001 24.1167 41.0645L36.2322 28.6761L24.1156 16.9347Z" fill="#4285F4"/>
<path d="M35.9102 29L41.9724 22.8019L28.8029 14.9938C28.3243 14.7001 27.7654 14.5314 27.168 14.5314C25.7047 14.5314 24.4702 15.5496 24.1105 16.9312C24.1105 16.9323 24.1094 16.9334 24.1094 16.9345L35.9102 29Z" fill="#34A853"/>
<path d="M66.9412 19.1816C66.9412 20.3873 66.5835 21.3479 65.8681 22.0633C65.0643 22.9153 64.0073 23.3414 62.6971 23.3414C61.4431 23.3414 60.3821 22.9073 59.5139 22.0392C58.6458 21.171 58.2117 20.102 58.2117 18.8319C58.2117 17.5619 58.6458 16.4928 59.5139 15.6247C60.3821 14.7566 61.4431 14.3225 62.6971 14.3225C63.3321 14.3225 63.9309 14.435 64.4936 14.6601C65.0563 14.8852 65.5185 15.2027 65.8802 15.6126L65.0844 16.4084C64.8191 16.0869 64.4735 15.8377 64.0475 15.6609C63.6295 15.476 63.1793 15.3835 62.6971 15.3835C61.7566 15.3835 60.9608 15.7091 60.3097 16.3602C59.6667 17.0193 59.3451 17.8432 59.3451 18.8319C59.3451 19.8206 59.6667 20.6445 60.3097 21.3037C60.9608 21.9548 61.7566 22.2803 62.6971 22.2803C63.5571 22.2803 64.2725 22.0392 64.8433 21.5569C65.414 21.0746 65.7435 20.4114 65.832 19.5674H62.6971V18.5305H66.8809C66.9211 18.7556 66.9412 18.9726 66.9412 19.1816ZM73.3289 14.5154V15.5765H69.3983V18.3135H72.9431V19.3504H69.3983V22.0874H73.3289V23.1484H68.289V14.5154H73.3289ZM77.7659 15.5765V23.1484H76.6567V15.5765H74.2452V14.5154H80.1774V15.5765H77.7659ZM85.0939 23.1484H83.9847V14.5154H85.0939V23.1484ZM89.7761 15.5765V23.1484H88.6669V15.5765H86.2554V14.5154H92.1876V15.5765H89.7761ZM104.212 18.8319C104.212 20.11 103.785 21.1791 102.933 22.0392C102.073 22.9073 101.02 23.3414 99.7744 23.3414C98.5205 23.3414 97.4675 22.9073 96.6154 22.0392C95.7634 21.1791 95.3374 20.11 95.3374 18.8319C95.3374 17.5539 95.7634 16.4848 96.6154 15.6247C97.4675 14.7566 98.5205 14.3225 99.7744 14.3225C101.028 14.3225 102.081 14.7606 102.933 15.6367C103.785 16.4968 104.212 17.5619 104.212 18.8319ZM96.4707 18.8319C96.4707 19.8287 96.7842 20.6526 97.4112 21.3037C98.0462 21.9548 98.834 22.2803 99.7744 22.2803C100.715 22.2803 101.499 21.9548 102.126 21.3037C102.761 20.6606 103.078 19.8367 103.078 18.8319C103.078 17.8272 102.761 17.0032 102.126 16.3602C101.499 15.7091 100.715 15.3835 99.7744 15.3835C98.834 15.3835 98.0462 15.7091 97.4112 16.3602C96.7842 17.0113 96.4707 17.8352 96.4707 18.8319ZM106.63 23.1484H105.521V14.5154H106.871L111.067 21.2313H111.115L111.067 19.5674V14.5154H112.176V23.1484H111.019L106.63 16.107H106.582L106.63 17.7709V23.1484Z" fill="white"/>
<path d="M127.117 41.5226H129.081V28.2457H127.117V41.5226ZM144.806 33.0282L142.554 38.7846H142.487L140.151 33.0282H138.035L141.539 41.0733L139.542 45.5489H141.589L146.99 33.0282H144.806ZM133.668 40.0144C133.024 40.0144 132.128 39.6905 132.128 38.8865C132.128 37.8627 133.244 37.4697 134.209 37.4697C135.072 37.4697 135.48 37.6577 136.004 37.9137C135.851 39.1435 134.802 40.0144 133.668 40.0144ZM133.905 32.7382C132.483 32.7382 131.01 33.3702 130.402 34.771L132.145 35.5049C132.517 34.771 133.211 34.531 133.939 34.531C134.955 34.531 135.987 35.1459 136.004 36.2399V36.3758C135.648 36.1708 134.887 35.8639 133.956 35.8639C132.077 35.8639 130.164 36.9058 130.164 38.8525C130.164 40.6294 131.705 41.7743 133.431 41.7743C134.751 41.7743 135.48 41.1763 135.937 40.4754H136.004V41.5003H137.899V36.4098C137.899 34.0531 136.157 32.7382 133.905 32.7382ZM121.768 34.6446H118.975V30.0937H121.768C123.236 30.0937 124.07 31.3204 124.07 32.3686C124.07 33.3978 123.236 34.6446 121.768 34.6446ZM121.718 28.2457H117.012V41.5226H118.975V36.4926H121.718C123.894 36.4926 126.034 34.9017 126.034 32.3686C126.034 29.8356 123.894 28.2457 121.718 28.2457ZM96.0575 40.0166C94.7009 40.0166 93.5653 38.8706 93.5653 37.2966C93.5653 35.7056 94.7009 34.5416 96.0575 34.5416C97.3973 34.5416 98.4477 35.7056 98.4477 37.2966C98.4477 38.8706 97.3973 40.0166 96.0575 40.0166ZM98.313 33.7716H98.2446C97.8036 33.2416 96.9563 32.7627 95.8881 32.7627C93.6495 32.7627 91.5982 34.7466 91.5982 37.2966C91.5982 39.8286 93.6495 41.7966 95.8881 41.7966C96.9563 41.7966 97.8036 41.3176 98.2446 40.7696H98.313V41.4206C98.313 43.1486 97.3973 44.0726 95.9218 44.0726C94.7177 44.0726 93.9715 43.1996 93.6663 42.4636L91.954 43.1826C92.4455 44.3806 93.7516 45.8516 95.9218 45.8516C98.2277 45.8516 100.178 44.4826 100.178 41.1466V33.0356H98.313V33.7716ZM101.535 41.5226H103.502V28.2446H101.535V41.5226ZM106.4 37.1426C106.35 35.3976 107.74 34.5076 108.74 34.5076C109.521 34.5076 110.182 34.9006 110.402 35.4656L106.4 37.1426ZM112.504 35.6366C112.132 34.6276 110.995 32.7627 108.672 32.7627C106.366 32.7627 104.451 34.5926 104.451 37.2796C104.451 39.8116 106.35 41.7966 108.892 41.7966C110.945 41.7966 112.132 40.5306 112.623 39.7946L111.097 38.7676C110.589 39.5206 109.893 40.0166 108.892 40.0166C107.893 40.0166 107.18 39.5546 106.722 38.6486L112.708 36.1496L112.504 35.6366ZM64.8193 34.1486V36.0646H69.3628C69.227 37.1426 68.8713 37.9296 68.3292 38.4766C67.6672 39.1446 66.6327 39.8806 64.8193 39.8806C62.0207 39.8806 59.8337 37.6046 59.8337 34.7816C59.8337 31.9576 62.0207 29.6827 64.8193 29.6827C66.3285 29.6827 67.4304 30.2817 68.244 31.0517L69.5838 29.6997C68.4471 28.6047 66.9389 27.7656 64.8193 27.7656C60.9872 27.7656 57.7656 30.9147 57.7656 34.7816C57.7656 38.6486 60.9872 41.7966 64.8193 41.7966C66.8874 41.7966 68.4471 41.1116 69.668 39.8286C70.9236 38.5626 71.313 36.7836 71.313 35.3456C71.313 34.9006 71.2793 34.4906 71.2109 34.1486H64.8193ZM76.4795 40.0166C75.1229 40.0166 73.9526 38.8876 73.9526 37.2796C73.9526 35.6536 75.1229 34.5416 76.4795 34.5416C77.8351 34.5416 79.0055 35.6536 79.0055 37.2796C79.0055 38.8876 77.8351 40.0166 76.4795 40.0166ZM76.4795 32.7627C74.0031 32.7627 71.9855 34.6616 71.9855 37.2796C71.9855 39.8806 74.0031 41.7966 76.4795 41.7966C78.9549 41.7966 80.9725 39.8806 80.9725 37.2796C80.9725 34.6616 78.9549 32.7627 76.4795 32.7627ZM86.2812 40.0166C84.9245 40.0166 83.7542 38.8876 83.7542 37.2796C83.7542 35.6536 84.9245 34.5416 86.2812 34.5416C87.6378 34.5416 88.8071 35.6536 88.8071 37.2796C88.8071 38.8876 87.6378 40.0166 86.2812 40.0166ZM86.2812 32.7627C83.8058 32.7627 81.7882 34.6616 81.7882 37.2796C81.7882 39.8806 83.8058 41.7966 86.2812 41.7966C88.7566 41.7966 90.7741 39.8806 90.7741 37.2796C90.7741 34.6616 88.7566 32.7627 86.2812 32.7627Z" fill="white"/>
</svg>
