<svg width="171" height="58" viewBox="0 0 171 58" fill="none" xmlns="http://www.w3.org/2000/svg">
<rect x="0.602864" y="0.602864" width="169.794" height="56.7943" rx="28.3971" stroke="#64748B" stroke-opacity="0.78" stroke-width="1.20573"/>
<path d="M41.7348 29.9194C41.7495 28.8102 42.0513 27.7227 42.6121 26.758C43.1729 25.7933 43.9746 24.9828 44.9424 24.4019C44.3276 23.5445 43.5164 22.839 42.5734 22.3412C41.6303 21.8435 40.5814 21.5673 39.5099 21.5346C37.2243 21.3003 35.0084 22.8699 33.8437 22.8699C32.6564 22.8699 30.8631 21.5578 28.932 21.5966C27.6829 21.636 26.4656 21.9906 25.3986 22.6259C24.3317 23.2612 23.4515 24.1555 22.8438 25.2216C20.2114 29.6712 22.1749 36.2107 24.6966 39.8074C25.9582 41.5686 27.4327 43.536 29.362 43.4662C31.25 43.3898 31.9551 42.2908 34.234 42.2908C36.4918 42.2908 37.1534 43.4662 39.1219 43.4219C41.1478 43.3898 42.4242 41.6528 43.6416 39.8749C44.548 38.62 45.2456 37.233 45.7083 35.7654C44.5313 35.2794 43.5269 34.4658 42.8203 33.4263C42.1137 32.3867 41.7362 31.167 41.7348 29.9194Z" fill="white"/>
<path d="M38.0205 19.1698C39.1251 17.8752 39.6693 16.2113 39.5376 14.5312C37.85 14.7043 36.2911 15.4917 35.1716 16.7367C34.6243 17.3448 34.205 18.0524 33.9379 18.8188C33.6708 19.5853 33.561 20.3956 33.6149 21.2035C34.459 21.212 35.294 21.0334 36.0572 20.6811C36.8203 20.3288 37.4916 19.8121 38.0205 19.1698Z" fill="white"/>
<path d="M56.3131 17.2674H58.8088C60.9653 17.2674 62.0144 18.5497 62.0144 20.8757C62.0144 23.2018 60.9547 24.5 58.8088 24.5H56.3131V17.2674ZM57.5159 18.2794V23.488H58.6763C60.1069 23.488 60.7799 22.6243 60.7799 20.8916C60.7799 19.1484 60.1016 18.2794 58.6763 18.2794H57.5159ZM65.8188 18.804C67.2813 18.804 68.3039 19.7524 68.3039 21.3261V22.052C68.3039 23.6787 67.2813 24.5954 65.8188 24.5954C64.3352 24.5954 63.3232 23.6893 63.3232 22.0573V21.3314C63.3232 19.8001 64.3511 18.804 65.8188 18.804ZM65.8241 19.7524C64.987 19.7524 64.5101 20.4519 64.5101 21.3897V22.015C64.5101 22.9528 64.9552 23.6469 65.8241 23.6469C66.6825 23.6469 67.1223 22.9581 67.1223 22.015V21.3897C67.1223 20.4519 66.6613 19.7524 65.8241 19.7524ZM76.9406 18.8994L75.4676 24.5H74.2701L73.0991 20.3671H73.0673L71.9175 24.5H70.7148L69.1782 18.8994H70.4445L71.3453 23.17H71.3983L72.5269 18.8994H73.6343L74.7947 23.17H74.8477L75.7643 18.8994H76.9406ZM78.1063 24.5V18.8994H79.2614V19.9061H79.3197C79.4628 19.4663 79.8708 18.8146 81.0047 18.8146C82.1333 18.8146 82.891 19.4398 82.891 20.7168V24.5H81.7147V21.0612C81.7147 20.2081 81.2696 19.816 80.6073 19.816C79.7383 19.816 79.2826 20.4837 79.2826 21.3897V24.5H78.1063ZM84.6713 24.5V16.8859H85.8476V24.5H84.6713ZM89.8851 18.804C91.3476 18.804 92.3702 19.7524 92.3702 21.3261V22.052C92.3702 23.6787 91.3476 24.5954 89.8851 24.5954C88.4015 24.5954 87.3895 23.6893 87.3895 22.0573V21.3314C87.3895 19.8001 88.4174 18.804 89.8851 18.804ZM89.8904 19.7524C89.0533 19.7524 88.5764 20.4519 88.5764 21.3897V22.015C88.5764 22.9528 89.0215 23.6469 89.8904 23.6469C90.7488 23.6469 91.1886 22.9581 91.1886 22.015V21.3897C91.1886 20.4519 90.7276 19.7524 89.8904 19.7524ZM95.4169 24.5848C94.3307 24.5848 93.5836 23.9172 93.5836 22.8733C93.5836 21.8825 94.2724 21.2149 95.5652 21.2149H96.98V20.6903C96.98 20.0492 96.572 19.7471 95.9256 19.7471C95.2897 19.7471 95.0036 20.0121 94.9135 20.383H93.7955C93.8644 19.4451 94.5691 18.8146 95.9626 18.8146C97.1601 18.8146 98.151 19.3127 98.151 20.7062V24.5H97.033V23.7741H96.98C96.7309 24.2033 96.2435 24.5848 95.4169 24.5848ZM95.7825 23.6734C96.4501 23.6734 96.98 23.2177 96.98 22.6084V22.0044H95.7507C95.0672 22.0044 94.7652 22.3488 94.7652 22.815C94.7652 23.3979 95.2526 23.6734 95.7825 23.6734ZM101.775 18.8252C102.565 18.8252 103.169 19.1749 103.386 19.7418H103.444V16.8859H104.621V24.5H103.476V23.6045H103.418C103.248 24.1715 102.575 24.5742 101.759 24.5742C100.472 24.5742 99.6346 23.6575 99.6346 22.1792V21.2202C99.6346 19.7418 100.488 18.8252 101.775 18.8252ZM102.104 19.7895C101.32 19.7895 100.832 20.3724 100.832 21.3897V22.0044C100.832 23.027 101.325 23.6098 102.13 23.6098C102.925 23.6098 103.444 23.0323 103.444 22.0785V21.2308C103.444 20.3671 102.877 19.7895 102.104 19.7895ZM111.08 18.804C112.542 18.804 113.565 19.7524 113.565 21.3261V22.052C113.565 23.6787 112.542 24.5954 111.08 24.5954C109.596 24.5954 108.584 23.6893 108.584 22.0573V21.3314C108.584 19.8001 109.612 18.804 111.08 18.804ZM111.085 19.7524C110.248 19.7524 109.771 20.4519 109.771 21.3897V22.015C109.771 22.9528 110.216 23.6469 111.085 23.6469C111.943 23.6469 112.383 22.9581 112.383 22.015V21.3897C112.383 20.4519 111.922 19.7524 111.085 19.7524ZM115.08 24.5V18.8994H116.235V19.9061H116.293C116.436 19.4663 116.844 18.8146 117.978 18.8146C119.107 18.8146 119.865 19.4398 119.865 20.7168V24.5H118.688V21.0612C118.688 20.2081 118.243 19.816 117.581 19.816C116.712 19.816 116.256 20.4837 116.256 21.3897V24.5H115.08ZM124.416 18.9365V17.5376H125.566V18.9365H126.822V19.8584H125.566V22.8309C125.566 23.4403 125.794 23.6098 126.424 23.6098C126.583 23.6098 126.795 23.5992 126.885 23.5886V24.4894C126.79 24.5053 126.398 24.5371 126.133 24.5371C124.771 24.5371 124.4 24.0496 124.4 22.9263V19.8584H123.547V18.9365H124.416ZM128.305 24.5V16.8859H129.476V19.9061H129.535C129.657 19.5087 130.112 18.8146 131.236 18.8146C132.327 18.8146 133.106 19.4451 133.106 20.7221V24.5H131.935V21.0665C131.935 20.2134 131.463 19.816 130.796 19.816C129.953 19.816 129.476 20.4784 129.476 21.3897V24.5H128.305ZM137.053 24.5954C135.527 24.5954 134.579 23.6575 134.579 22.0785V21.3208C134.579 19.7312 135.617 18.804 136.985 18.804C138.389 18.804 139.379 19.7789 139.379 21.3208V21.9779H135.745V22.2534C135.745 23.0588 136.222 23.6522 137.048 23.6522C137.663 23.6522 138.087 23.3608 138.166 23.0111H139.316C139.247 23.6575 138.563 24.5954 137.053 24.5954ZM135.745 21.2096H138.23V21.1354C138.23 20.2929 137.737 19.7312 136.99 19.7312C136.243 19.7312 135.745 20.2929 135.745 21.1354V21.2096Z" fill="white"/>
<path d="M58.0193 43.5H55.5713L60.552 29.0348H63.2437L68.2138 43.5H65.6705L64.3882 39.4942H59.3121L58.0193 43.5ZM61.9085 31.5357H61.8131L59.8526 37.6503H63.8478L61.9085 31.5357ZM74.9698 43.659C73.518 43.659 72.4159 42.9701 71.8224 41.9422H71.7376V47.2196H69.3851V32.2987H71.6741V33.9413H71.7588C72.3735 32.871 73.518 32.1504 75.0228 32.1504C77.5343 32.1504 79.3253 34.0473 79.3253 37.396V38.3921C79.3253 41.7197 77.5555 43.659 74.9698 43.659ZM74.4293 41.7197C75.9236 41.7197 76.9409 40.5222 76.9409 38.265V37.4808C76.9409 35.3083 75.9871 34.0685 74.387 34.0685C72.7444 34.0685 71.7165 35.4037 71.7165 37.4702V38.265C71.7165 40.3844 72.755 41.7197 74.4293 41.7197ZM86.929 43.659C85.4772 43.659 84.3751 42.9701 83.7817 41.9422H83.6969V47.2196H81.3443V32.2987H83.6333V33.9413H83.7181C84.3327 32.871 85.4772 32.1504 86.982 32.1504C89.4936 32.1504 91.2845 34.0473 91.2845 37.396V38.3921C91.2845 41.7197 89.5148 43.659 86.929 43.659ZM86.3886 41.7197C87.8828 41.7197 88.9001 40.5222 88.9001 38.265V37.4808C88.9001 35.3083 87.9464 34.0685 86.3462 34.0685C84.7036 34.0685 83.6757 35.4037 83.6757 37.4702V38.265C83.6757 40.3844 84.7142 41.7197 86.3886 41.7197ZM96.1597 39.4837H98.5123C98.6183 40.7341 99.7204 41.8044 101.766 41.8044C103.641 41.8044 104.754 40.9249 104.754 39.5578C104.754 38.4557 104.012 37.8623 102.465 37.4914L100.091 36.8979C98.2262 36.4634 96.5518 35.3507 96.5518 32.9981C96.5518 30.2323 98.968 28.7169 101.776 28.7169C104.585 28.7169 106.927 30.2323 106.98 32.9346H104.669C104.563 31.7053 103.62 30.688 101.744 30.688C100.091 30.688 98.968 31.4721 98.968 32.818C98.968 33.7611 99.625 34.4394 100.971 34.7467L103.334 35.3295C105.506 35.8594 107.16 36.8873 107.16 39.3459C107.16 42.1859 104.86 43.7861 101.586 43.7861C97.5586 43.7861 96.2127 41.4335 96.1597 39.4837ZM110.026 32.2987V29.5752H112.337V32.2987H114.52V34.185H112.337V40.1619C112.337 41.3806 112.792 41.7197 114.053 41.7197C114.255 41.7197 114.446 41.7197 114.583 41.6985V43.5C114.393 43.5318 113.947 43.5742 113.471 43.5742C110.747 43.5742 109.995 42.5992 109.995 40.3526V34.185H108.447V32.2987H110.026ZM120.873 32.108C124.095 32.108 125.843 34.3758 125.843 37.4278V38.3286C125.843 41.4865 124.105 43.6908 120.873 43.6908C117.641 43.6908 115.882 41.4865 115.882 38.3286V37.4278C115.882 34.3864 117.651 32.108 120.873 32.108ZM120.873 33.9943C119.124 33.9943 118.255 35.4249 118.255 37.4596V38.318C118.255 40.3208 119.114 41.7938 120.873 41.7938C122.632 41.7938 123.48 40.3314 123.48 38.318V37.4596C123.48 35.4143 122.622 33.9943 120.873 33.9943ZM127.83 43.5V32.2987H130.183V33.7717H130.268C130.554 33.0723 131.391 32.1398 132.949 32.1398C133.256 32.1398 133.521 32.161 133.744 32.2034V34.2804C133.542 34.2274 133.129 34.1956 132.737 34.1956C130.851 34.1956 130.215 35.3613 130.215 36.8661V43.5H127.83ZM139.45 43.6908C136.451 43.6908 134.544 41.7091 134.544 38.3921V37.2582C134.544 34.1321 136.409 32.108 139.355 32.108C142.343 32.108 144.145 34.2062 144.145 37.3642V38.4345H136.865V38.6995C136.865 40.5858 137.882 41.8362 139.482 41.8362C140.68 41.8362 141.496 41.2428 141.782 40.2784H144.018C143.679 42.0906 142.216 43.6908 139.45 43.6908ZM136.865 36.792H141.845V36.7708C141.845 35.1812 140.86 33.9307 139.366 33.9307C137.85 33.9307 136.865 35.1812 136.865 36.7708V36.792Z" fill="white"/>
</svg>
